<svg width="16" height="14" viewBox="0 0 16 14" fill="none" xmlns="http://www.w3.org/2000/svg">
<path d="M14.9853 0.177246L9.23608 4.44257L10.3038 1.92613L14.9853 0.177246Z" fill="#E17726" stroke="#E17726" stroke-width="0.231576" stroke-linecap="round" stroke-linejoin="round"/>
<path d="M1.72729 0.177734L7.42424 4.48342L6.4088 1.92662L1.72729 0.177734Z" fill="#E27625" stroke="#E27625" stroke-width="0.231576" stroke-linecap="round" stroke-linejoin="round"/>
<path d="M12.9186 10.0649L11.3892 12.4085L14.6618 13.3086L15.5971 10.1167L12.9186 10.0649Z" fill="#E27625" stroke="#E27625" stroke-width="0.231576" stroke-linecap="round" stroke-linejoin="round"/>
<path d="M1.12109 10.1167L2.05068 13.3086L5.3233 12.4085L3.79957 10.0649L1.12109 10.1167Z" fill="#E27625" stroke="#E27625" stroke-width="0.231576" stroke-linecap="round" stroke-linejoin="round"/>
<path d="M5.1441 6.10496L4.23218 7.48478L7.4762 7.62919L7.36647 4.13672L5.1441 6.10496Z" fill="#E27625" stroke="#E27625" stroke-width="0.231576" stroke-linecap="round" stroke-linejoin="round"/>
<path d="M11.5682 6.10529L9.31113 4.09668L9.23608 7.62951L12.4801 7.48511L11.5682 6.10529Z" fill="#E27625" stroke="#E27625" stroke-width="0.231576" stroke-linecap="round" stroke-linejoin="round"/>
<path d="M5.323 12.4089L7.28018 11.4559L5.59423 10.1401L5.323 12.4089Z" fill="#E27625" stroke="#E27625" stroke-width="0.231576" stroke-linecap="round" stroke-linejoin="round"/>
<path d="M9.43213 11.4559L11.3893 12.4089L11.1181 10.1401L9.43213 11.4559Z" fill="#E27625" stroke="#E27625" stroke-width="0.231576" stroke-linecap="round" stroke-linejoin="round"/>
<path d="M11.3896 12.4086L9.43237 11.4556L9.58818 12.7315L9.57112 13.2683L11.3896 12.4086Z" fill="#D5BFB2" stroke="#D5BFB2" stroke-width="0.231576" stroke-linecap="round" stroke-linejoin="round"/>
<path d="M5.323 12.4081L7.14144 13.2678L7.13006 12.7311L7.28018 11.4551L5.323 12.4081Z" fill="#D5BFB2" stroke="#D5BFB2" stroke-width="0.231576" stroke-linecap="round" stroke-linejoin="round"/>
<path d="M7.17605 9.29715L5.5481 8.81837L6.6967 8.29297L7.17605 9.29715Z" fill="#233447" stroke="#233447" stroke-width="0.231576" stroke-linecap="round" stroke-linejoin="round"/>
<path d="M9.53638 9.29666L10.0157 8.29248L11.17 8.81788L9.53638 9.29666Z" fill="#233447" stroke="#233447" stroke-width="0.231576" stroke-linecap="round" stroke-linejoin="round"/>
<path d="M5.32321 12.4088L5.60581 10.0649L3.79932 10.1167L5.32321 12.4088Z" fill="#CC6228" stroke="#CC6228" stroke-width="0.231576" stroke-linecap="round" stroke-linejoin="round"/>
<path d="M11.1067 10.0649L11.3893 12.4088L12.9189 10.1167L11.1067 10.0649Z" fill="#CC6228" stroke="#CC6228" stroke-width="0.231576" stroke-linecap="round" stroke-linejoin="round"/>
<path d="M12.4803 7.48486L9.23633 7.62927L9.53651 9.29676L10.0158 8.29274L11.1699 8.81806L12.4803 7.48486Z" fill="#CC6228" stroke="#CC6228" stroke-width="0.231576" stroke-linecap="round" stroke-linejoin="round"/>
<path d="M5.54832 8.81757L6.69675 8.29225L7.17602 9.29627L7.4762 7.62878L4.23218 7.48438L5.54832 8.81757Z" fill="#CC6228" stroke="#CC6228" stroke-width="0.231576" stroke-linecap="round" stroke-linejoin="round"/>
<path d="M4.23218 7.48438L5.59437 10.1394L5.54832 8.81757L4.23218 7.48438Z" fill="#E27525" stroke="#E27525" stroke-width="0.231576" stroke-linecap="round" stroke-linejoin="round"/>
<path d="M11.1697 8.81757L11.1179 10.1394L12.4801 7.48438L11.1697 8.81757Z" fill="#E27525" stroke="#E27525" stroke-width="0.231576" stroke-linecap="round" stroke-linejoin="round"/>
<path d="M7.47621 7.62939L7.17603 9.29689L7.55694 11.2651L7.63767 8.67378L7.47621 7.62939Z" fill="#E27525" stroke="#E27525" stroke-width="0.231576" stroke-linecap="round" stroke-linejoin="round"/>
<path d="M9.2361 7.62939L9.08032 8.6681L9.15537 11.2651L9.53628 9.29689L9.2361 7.62939Z" fill="#E27525" stroke="#E27525" stroke-width="0.231576" stroke-linecap="round" stroke-linejoin="round"/>
<path d="M9.53643 9.29706L9.15552 11.2653L9.43239 11.4558L11.1181 10.1402L11.1698 8.81836L9.53643 9.29706Z" fill="#F5841F" stroke="#F5841F" stroke-width="0.231576" stroke-linecap="round" stroke-linejoin="round"/>
<path d="M5.5481 8.81836L5.59415 10.1402L7.27983 11.4558L7.5567 11.2653L7.17579 9.29706L5.5481 8.81836Z" fill="#F5841F" stroke="#F5841F" stroke-width="0.231576" stroke-linecap="round" stroke-linejoin="round"/>
<path d="M9.57126 13.2679L9.58832 12.7311L9.44447 12.6044H7.26803L7.12987 12.7311L7.14125 13.2679L5.323 12.4082L5.95808 12.9273L7.25098 13.8222H9.46153L10.7544 12.9273L11.3895 12.4082L9.57126 13.2679Z" fill="#C0AC9D" stroke="#C0AC9D" stroke-width="0.231576" stroke-linecap="round" stroke-linejoin="round"/>
<path d="M9.43218 11.4556L9.1553 11.2651H7.5566L7.27973 11.4556L7.12964 12.7314L7.26779 12.6046H9.44412L9.58796 12.7314L9.43218 11.4556Z" fill="#161616" stroke="#161616" stroke-width="0.231576" stroke-linecap="round" stroke-linejoin="round"/>
<path d="M15.2274 4.72002L15.7124 2.36506L14.9852 0.177246L9.43213 4.29872L11.5682 6.10503L14.5867 6.98857L15.2507 6.20907L14.9619 6.00155L15.4236 5.57968L15.0717 5.30279L15.5333 4.95086L15.2274 4.72002Z" fill="#763E1A" stroke="#763E1A" stroke-width="0.231576" stroke-linecap="round" stroke-linejoin="round"/>
<path d="M1 2.36506L1.49067 4.72002L1.1791 4.95086L1.64076 5.30279L1.28883 5.57968L1.7505 6.00155L1.46167 6.20907L2.12574 6.98857L5.14422 6.10503L7.28029 4.29872L1.72719 0.177246L1 2.36506Z" fill="#763E1A" stroke="#763E1A" stroke-width="0.231576" stroke-linecap="round" stroke-linejoin="round"/>
<path d="M14.5867 6.98852L11.5682 6.10498L12.4802 7.48487L11.1179 10.14L12.9185 10.1167H15.597L14.5867 6.98852Z" fill="#F5841F" stroke="#F5841F" stroke-width="0.231576" stroke-linecap="round" stroke-linejoin="round"/>
<path d="M5.14421 6.10498L2.12574 6.98852L1.12109 10.1167H3.79957L5.59451 10.14L4.23224 7.48487L5.14421 6.10498Z" fill="#F5841F" stroke="#F5841F" stroke-width="0.231576" stroke-linecap="round" stroke-linejoin="round"/>
<path d="M9.23631 7.62966L9.43245 4.29922L10.304 1.92676H6.40845L7.28 4.29922L7.47614 7.62966L7.55119 8.67973L7.55687 11.2654H9.15557L9.16126 8.67973L9.23631 7.62966Z" fill="#F5841F" stroke="#F5841F" stroke-width="0.231576" stroke-linecap="round" stroke-linejoin="round"/>
</svg>
